<svg fill="#000000" width="24" height="24" viewBox="0 0 512 521" xmlns="http://www.w3.org/2000/svg">
  <path style="fill:#8BC0FF;"
        d="M222.609,478.609C222.609,497.05,237.558,512,256,512l11.13-33.391L256,445.217C237.558,445.217,222.609,460.168,222.609,478.609z"/>
  <path style="fill:#3897FF;" d="M256,445.217V512c18.442,0,33.391-14.95,33.391-33.391S274.442,445.217,256,445.217z"/>
  <g>
    <path style="fill:#8BC0FF;"
          d="M233.32,281.163l-10.711,9.913v109.62H256l22.261-70.312L256,260.072C243.217,272,233.559,280.941,233.32,281.163z"/>
    <path style="fill:#8BC0FF;"
          d="M107.965,148.035h66.783c0-44.802,36.45-81.252,81.252-81.252l22.261-33.391L256,0C174.374,0,107.965,66.409,107.965,148.035z"/>
  </g>
  <path style="fill:#3897FF;"
        d="M256,0v66.783c44.802,0,81.252,36.45,81.252,81.252c0,21.703-8.452,42.108-23.798,57.454c-12.035,12.034-38.268,36.677-57.454,54.583v140.624h33.391v-80.459c18.43-17.133,55.505-51.747,71.285-67.525c27.961-27.961,43.359-65.136,43.359-104.677C404.035,66.409,337.627,0,256,0z"/>
</svg>
