<?xml version="1.0"?>
<svg xmlns="http://www.w3.org/2000/svg" width="100%" height="100%" data-element-id="e59287e6-ff46-46f2-948b-450bd7bc9d9e" class="">
  <g class="viewport" transform="matrix(0.759924, 0, 0, 0.759924, -62.3138, 44.8355)">
    <g class="layer-base" data-element-id="e59287e6-ff46-46f2-948b-450bd7bc9d9e">
      <g class="djs-group">
        <g class="djs-element djs-shape" data-element-id="852edac5-e0a7-46ad-b326-330904c18567" transform="translate(122, -19)" style="display: block;">
          <g class="djs-visual">
            <rect x="0" y="0" width="1495" height="449" rx="0" ry="0" style="stroke: black; stroke-width: 2px; fill: white; fill-opacity: 0.35;"/>
            <text style="font-weight: bold;" class="djs-label">
              <tspan x="560" y="25">Reco&#xF1;ecemento do grao de discapacidade</tspan>
            </text>
          </g>
          <rect x="0" y="0" width="1495" height="449" style="fill: none; stroke-opacity: 0; stroke: white; stroke-width: 15px;" class="djs-hit"/>
          <rect x="-6" y="-6" width="1507" height="461" style="fill: none;" class="djs-outline"/>
        </g>
        <g class="djs-children">
          <g class="djs-group">
            <g class="djs-element djs-shape" data-element-id="64e90f07-379b-4942-bdc0-56b8f49e3216" transform="translate(438, 21)" style="display: block;">
              <g class="djs-visual">
                <path d="M0,0h732l40,60l-40,60h-732l40,-60zM0,120h732v289h-732z" style="fill: white; stroke-width: 2px; stroke: black; fill-opacity: 0.35;"/>
                <text style="fill: black;" class="djs-label">
                  <tspan x="249" y="64.75">Citaci&#xF3;n, reco&#xF1;ecemento e ditame</tspan>
                </text>
              </g>
              <rect x="0" y="0" width="732" height="409" style="fill: none; stroke-opacity: 0; stroke: white; stroke-width: 15px;" class="djs-hit"/>
              <rect x="-6" y="-6" width="744" height="421" style="fill: none;" class="djs-outline"/>
            </g>
            <g class="djs-children">
              <g class="djs-group">
                <g class="djs-element djs-connection" data-element-id="b0df7c8b-6d12-4147-9055-0565a812be5e" style="display: block;">
                  <g class="djs-visual">
                    <path d="m  1065.4534412955466,279L1130.4534412955466,278 " style="fill: none; stroke-width: 2px; stroke: black; stroke-linejoin: round; marker-end: url(&quot;#sequenceflow-end-black-black-66ac109e-9358-4624-9c17-a574b6e4f983&quot;);"/>
                  </g>
                  <polyline points="1065.4534412955466,279 1130.4534412955466,278 " style="fill: none; stroke-opacity: 0; stroke: white; stroke-width: 15px;" class="djs-hit"/>
                  <rect x="1059.4534412955466" y="272" width="77" height="13" style="fill: none;" class="djs-outline"/>
                </g>
              </g>
              <g class="djs-group">
                <g class="djs-element djs-connection" data-element-id="9b0b57d8-d869-40ee-aae6-a66b237916bf" style="display: block;">
                  <g class="djs-visual">
                    <path d="m  865.4534412955466,280.9392712550607L925.4534412955466,282 " style="fill: none; stroke-width: 2px; stroke: black; stroke-linejoin: round; marker-end: url(&quot;#sequenceflow-end-black-black-66ac109e-9358-4624-9c17-a574b6e4f983&quot;);"/>
                  </g>
                  <polyline points="865.4534412955466,280.9392712550607 925.4534412955466,282 " style="fill: none; stroke-opacity: 0; stroke: white; stroke-width: 15px;" class="djs-hit"/>
                  <rect x="859.4534412955466" y="274.9392712550607" width="72" height="13.060728744939297" style="fill: none;" class="djs-outline"/>
                </g>
              </g>
              <g class="djs-group">
                <g class="djs-element djs-connection" data-element-id="37f147df-4661-4a0e-b050-5765991ca03f" style="display: block;">
                  <g class="djs-visual">
                    <path d="m  660.4534412955466,281L725.4534412955466,282 " style="fill: none; stroke-width: 2px; stroke: black; stroke-linejoin: round; marker-end: url(&quot;#sequenceflow-end-black-black-66ac109e-9358-4624-9c17-a574b6e4f983&quot;);"/>
                  </g>
                  <polyline points="660.4534412955466,281 725.4534412955466,282 " style="fill: none; stroke-opacity: 0; stroke: white; stroke-width: 15px;" class="djs-hit"/>
                  <rect x="654.4534412955466" y="275" width="77" height="13" style="fill: none;" class="djs-outline"/>
                </g>
              </g>
              <g class="djs-group">
                <g class="djs-element djs-connection" data-element-id="638afbe7-b066-44a5-b182-fdfb96eea99e" style="display: block;">
                  <g class="djs-visual">
                    <path d="m  478.45344129554655,286L520.4534412955466,285 " style="fill: none; stroke-width: 2px; stroke: black; stroke-linejoin: round; marker-end: url(&quot;#sequenceflow-end-black-black-66ac109e-9358-4624-9c17-a574b6e4f983&quot;);"/>
                  </g>
                  <polyline points="478.45344129554655,286 520.4534412955466,285 " style="fill: none; stroke-opacity: 0; stroke: white; stroke-width: 15px;" class="djs-hit"/>
                  <rect x="472.45344129554655" y="279" width="54" height="13" style="fill: none;" class="djs-outline"/>
                </g>
              </g>
              <g class="djs-group">
                <g class="djs-element djs-shape" data-element-id="339fbda5-f019-423e-b412-40c9ae0b0d60" transform="translate(925.453, 229.939)" style="display: block;">
                  <g class="djs-visual">
                    <rect x="0" y="0" width="140" height="100" rx="10" ry="10" style="stroke: black; stroke-width: 2px; fill: white;"/>
                    <text style="fill: black;" class="djs-label">
                      <tspan x="41" y="54.75">Ditame</tspan>
                    </text>
                    <path d="M4 10v7h3v-7H4zm6 0v7h3v-7h-3zM2 22h19v-3H2v3zm14-12v7h3v-7h-3zm-4.5-9L2 6v2h19V6l-9.5-5z" style="fill: black; stroke-width: 2px; stroke: none;" transform="translate(2, 2)"/>
                    <path d="M9 11.5c-.69 0-1.25.56-1.25 1.25s.56 1.25 1.25 1.25 1.25-.56 1.25-1.25-.56-1.25-1.25-1.25zm6 0c-.69 0-1.25.56-1.25 1.25s.56 1.25 1.25 1.25 1.25-.56 1.25-1.25-.56-1.25-1.25-1.25zM12 2C6.48 2 2 6.48 2 12s4.48 10 10 10 10-4.48 10-10S17.52 2 12 2zm0 18c-4.41 0-8-3.59-8-8 0-.29.02-.58.05-.86 2.36-1.05 4.23-2.98 5.21-5.37C11.07 8.33 14.05 10 17.42 10c.78 0 1.53-.09 2.25-.26.21.71.33 1.47.33 2.26 0 4.41-3.59 8-8 8z" style="fill: black; stroke-width: 2px; stroke: none;" transform="translate(114, 2)"/>
                    <path d="M12.72,2.03C6.63,1.6,1.6,6.63,2.03,12.72C2.39,18.01,7.01,22,12.31,22L16,22c0.55,0,1-0.45,1-1v0c0-0.55-0.45-1-1-1l-3.67,0c-3.73,0-7.15-2.42-8.08-6.03c-1.49-5.8,3.91-11.21,9.71-9.71C17.58,5.18,20,8.6,20,12.33l0,1.1c0,0.79-0.71,1.57-1.5,1.57S17,14.22,17,13.43v-1.25c0-2.51-1.78-4.77-4.26-5.12c-3.4-0.49-6.27,2.45-5.66,5.87c0.34,1.91,1.83,3.49,3.72,3.94c1.84,0.43,3.59-0.16,4.74-1.33c0.89,1.22,2.67,1.86,4.3,1.21c1.34-0.53,2.16-1.9,2.16-3.34c0-0.33,0-0.7,0-1.09C22,7.01,18.01,2.39,12.72,2.03z M12,15c-1.66,0-3-1.34-3-3s1.34-3,3-3s3,1.34,3,3S13.66,15,12,15z" style="fill: black; stroke-width: 2px; stroke: none;" transform="translate(58, 74)"/>
                  </g>
                  <rect x="0" y="0" width="140" height="100" style="fill: none; stroke-opacity: 0; stroke: white; stroke-width: 15px;" class="djs-hit"/>
                  <rect x="-6" y="-6" width="152" height="112" style="fill: none;" class="djs-outline"/>
                </g>
              </g>
              <g class="djs-group">
                <g class="djs-element djs-shape" data-element-id="24745f3a-3c78-4f5e-afab-07d1577c6bec" transform="translate(458.453, 273.939)" style="display: block;">
                  <g class="djs-visual">
                    <path d="M19,3H5C3.9,3,3,3.9,3,5v14c0,1.1,0.9,2,2,2h14c1.1,0,2,-0.9,2,-2V5C21,3.9,20.1,3,19,3z" style="fill: white; stroke-width: 2px; stroke: black;" transform="scale(0.833333)"/>
                  </g>
                  <rect x="0" y="0" width="20" height="20" style="fill: none; stroke-opacity: 0; stroke: white; stroke-width: 15px;" class="djs-hit"/>
                  <rect x="-6" y="-6" width="32" height="32" style="fill: none;" class="djs-outline"/>
                </g>
              </g>
              <g class="djs-group">
                <g class="djs-element djs-shape" data-element-id="34d1d74d-8408-4907-89ce-4b195ae2a8aa" transform="translate(1130.45, 265.939)" style="display: block;">
                  <g class="djs-visual">
                    <path d="M19,3H5C3.9,3,3,3.9,3,5v14c0,1.1,0.9,2,2,2h14c1.1,0,2,-0.9,2,-2V5C21,3.9,20.1,3,19,3zM19,19H5V5h14V19zM17.99,9L16.58,7.58L9.99,14.17L7.41,11.6L5.99,13.01L9.99,17z" style="fill: black; stroke-width: 2px; stroke: none;" transform="scale(0.833333)"/>
                  </g>
                  <rect x="0" y="0" width="20" height="20" style="fill: none; stroke-opacity: 0; stroke: white; stroke-width: 15px;" class="djs-hit"/>
                  <rect x="-6" y="-6" width="32" height="32" style="fill: none;" class="djs-outline"/>
                </g>
              </g>
              <g class="djs-group">
                <g class="djs-element djs-shape" data-element-id="5a1d40a7-bfa5-47c4-a207-2fd252d304b1" transform="translate(520.453, 229.939)" style="display: block;">
                  <g class="djs-visual">
                    <rect x="0" y="0" width="140" height="100" rx="10" ry="10" style="stroke: black; stroke-width: 2px; fill: white;"/>
                    <text style="fill: black;" class="djs-label">
                      <tspan x="36.5" y="54.75">Citaci&#xF3;n</tspan>
                    </text>
                    <path d="M4 10v7h3v-7H4zm6 0v7h3v-7h-3zM2 22h19v-3H2v3zm14-12v7h3v-7h-3zm-4.5-9L2 6v2h19V6l-9.5-5z" style="fill: black; stroke-width: 2px; stroke: none;" transform="translate(2, 2)"/>
                    <path d="M9 11.5c-.69 0-1.25.56-1.25 1.25s.56 1.25 1.25 1.25 1.25-.56 1.25-1.25-.56-1.25-1.25-1.25zm6 0c-.69 0-1.25.56-1.25 1.25s.56 1.25 1.25 1.25 1.25-.56 1.25-1.25-.56-1.25-1.25-1.25zM12 2C6.48 2 2 6.48 2 12s4.48 10 10 10 10-4.48 10-10S17.52 2 12 2zm0 18c-4.41 0-8-3.59-8-8 0-.29.02-.58.05-.86 2.36-1.05 4.23-2.98 5.21-5.37C11.07 8.33 14.05 10 17.42 10c.78 0 1.53-.09 2.25-.26.21.71.33 1.47.33 2.26 0 4.41-3.59 8-8 8z" style="fill: black; stroke-width: 2px; stroke: none;" transform="translate(114, 2)"/>
                    <path d="M12.72,2.03C6.63,1.6,1.6,6.63,2.03,12.72C2.39,18.01,7.01,22,12.31,22L16,22c0.55,0,1-0.45,1-1v0c0-0.55-0.45-1-1-1l-3.67,0c-3.73,0-7.15-2.42-8.08-6.03c-1.49-5.8,3.91-11.21,9.71-9.71C17.58,5.18,20,8.6,20,12.33l0,1.1c0,0.79-0.71,1.57-1.5,1.57S17,14.22,17,13.43v-1.25c0-2.51-1.78-4.77-4.26-5.12c-3.4-0.49-6.27,2.45-5.66,5.87c0.34,1.91,1.83,3.49,3.72,3.94c1.84,0.43,3.59-0.16,4.74-1.33c0.89,1.22,2.67,1.86,4.3,1.21c1.34-0.53,2.16-1.9,2.16-3.34c0-0.33,0-0.7,0-1.09C22,7.01,18.01,2.39,12.72,2.03z M12,15c-1.66,0-3-1.34-3-3s1.34-3,3-3s3,1.34,3,3S13.66,15,12,15z" style="fill: black; stroke-width: 2px; stroke: none;" transform="translate(58, 74)"/>
                  </g>
                  <rect x="0" y="0" width="140" height="100" style="fill: none; stroke-opacity: 0; stroke: white; stroke-width: 15px;" class="djs-hit"/>
                  <rect x="-6" y="-6" width="152" height="112" style="fill: none;" class="djs-outline"/>
                </g>
              </g>
              <g class="djs-group">
                <g class="djs-element djs-shape" data-element-id="cfbe378f-9855-47b6-8254-8caa4b116565" transform="translate(725.453, 232.939)" style="display: block;">
                  <g class="djs-visual">
                    <rect x="0" y="0" width="140" height="100" rx="10" ry="10" style="stroke: black; stroke-width: 2px; fill: white;"/>
                    <text style="fill: black;" class="djs-label">
                      <tspan x="6.5" y="54.75">Reco&#xF1;ecemento</tspan>
                    </text>
                    <path d="M9 11.5c-.69 0-1.25.56-1.25 1.25s.56 1.25 1.25 1.25 1.25-.56 1.25-1.25-.56-1.25-1.25-1.25zm6 0c-.69 0-1.25.56-1.25 1.25s.56 1.25 1.25 1.25 1.25-.56 1.25-1.25-.56-1.25-1.25-1.25zM12 2C6.48 2 2 6.48 2 12s4.48 10 10 10 10-4.48 10-10S17.52 2 12 2zm0 18c-4.41 0-8-3.59-8-8 0-.29.02-.58.05-.86 2.36-1.05 4.23-2.98 5.21-5.37C11.07 8.33 14.05 10 17.42 10c.78 0 1.53-.09 2.25-.26.21.71.33 1.47.33 2.26 0 4.41-3.59 8-8 8z" style="fill: black; stroke-width: 2px; stroke: none;" transform="translate(2, 2)"/>
                    <path d="M4 10v7h3v-7H4zm6 0v7h3v-7h-3zM2 22h19v-3H2v3zm14-12v7h3v-7h-3zm-4.5-9L2 6v2h19V6l-9.5-5z" style="fill: black; stroke-width: 2px; stroke: none;" transform="translate(114, 2)"/>
                    <path d="M16,11c1.66,0,2.99-1.34,2.99-3c0-1.66-1.33-3-2.99-3s-3,1.34-3,3C13,9.66,14.34,11,16,11zM8,11c1.66,0,2.99-1.34,2.99-3c0-1.66-1.33-3-2.99-3S5,6.34,5,8C5,9.66,6.34,11,8,11zM8,13c-2.33,0-7,1.17-7,3.5V18c0,0.55,0.45,1,1,1h12c0.55,0,1-0.45,1-1v-1.5C15,14.17,10.33,13,8,13zM16,13c-0.29,0-0.62,0.02-0.97,0.05c0.02,0.01,0.03,0.03,0.04,0.04C16.21,13.92,17,15.03,17,16.5V18c0,0.35-0.07,0.69-0.18,1H22c0.55,0,1-0.45,1-1v-1.5C23,14.17,18.33,13,16,13z" style="fill: black; stroke-width: 2px; stroke: none;" transform="translate(58, 74)"/>
                  </g>
                  <rect x="0" y="0" width="140" height="100" style="fill: none; stroke-opacity: 0; stroke: white; stroke-width: 15px;" class="djs-hit"/>
                  <rect x="-6" y="-6" width="152" height="112" style="fill: none;" class="djs-outline"/>
                </g>
              </g>
            </g>
          </g>
          <g class="djs-group">
            <g class="djs-element djs-shape" data-element-id="aea504bc-1016-4abe-bb7f-138f9e2542d0" transform="translate(1170, 21)" style="display: block;">
              <g class="djs-visual">
                <path d="M0,0h447v120h-447l40,-60zM0,120h447v289h-447z" style="fill: white; stroke-width: 2px; stroke: black; fill-opacity: 0.35;"/>
                <text style="fill: black;" class="djs-label">
                  <tspan x="89" y="64.75">Resoluci&#xF3;n, notificaci&#xF3;n e terminaci&#xF3;n</tspan>
                </text>
              </g>
              <rect x="0" y="0" width="447" height="409" style="fill: none; stroke-opacity: 0; stroke: white; stroke-width: 15px;" class="djs-hit"/>
              <rect x="-6" y="-6" width="459" height="421" style="fill: none;" class="djs-outline"/>
            </g>
            <g class="djs-children">
              <g class="djs-group">
                <g class="djs-element djs-connection" data-element-id="6d578903-2dad-4f44-8c08-dcf163dab7fb" style="display: block;">
                  <g class="djs-visual">
                    <path d="m  1226.4534412955466,274L1289.4534412955466,273.9392712550607 " style="fill: none; stroke-width: 2px; stroke: black; stroke-linejoin: round; marker-end: url(&quot;#sequenceflow-end-black-black-66ac109e-9358-4624-9c17-a574b6e4f983&quot;);"/>
                  </g>
                  <polyline points="1226.4534412955466,274 1289.4534412955466,273.9392712550607 " style="fill: none; stroke-opacity: 0; stroke: white; stroke-width: 15px;" class="djs-hit"/>
                  <rect x="1220.4534412955466" y="267.9392712550607" width="75" height="12.060728744939297" style="fill: none;" class="djs-outline"/>
                </g>
              </g>
              <g class="djs-group">
                <g class="djs-element djs-connection" data-element-id="0d3e56f4-c530-4c39-afc6-2107bfe8736d" style="display: block;">
                  <g class="djs-visual">
                    <path d="m  1309.4534412955466,265.9392712550607L1309.4534412955466,175.93927125506073 L1493.4534412955466,175.93927125506073 " style="fill: none; stroke-width: 2px; stroke: black; stroke-linejoin: round; marker-end: url(&quot;#sequenceflow-end-black-black-66ac109e-9358-4624-9c17-a574b6e4f983&quot;);"/>
                  </g>
                  <polyline points="1309.4534412955466,265.9392712550607 1309.4534412955466,175.93927125506073 1493.4534412955466,175.93927125506073 " style="fill: none; stroke-opacity: 0; stroke: white; stroke-width: 15px;" class="djs-hit"/>
                  <rect x="1303.4534412955466" y="169.93927125506073" width="196" height="101.99999999999997" style="fill: none;" class="djs-outline"/>
                </g>
              </g>
              <g class="djs-group">
                <g class="djs-element djs-connection" data-element-id="37468185-2858-4351-9dfb-860b33b788fc" style="display: block;">
                  <g class="djs-visual">
                    <path d="m  1310.4534412955466,290.9392712550607L1310.4534412955466,362 L1377,362 " style="fill: none; stroke-width: 2px; stroke: black; stroke-linejoin: round; marker-end: url(&quot;#sequenceflow-end-black-black-66ac109e-9358-4624-9c17-a574b6e4f983&quot;);"/>
                  </g>
                  <polyline points="1310.4534412955466,290.9392712550607 1310.4534412955466,362 1377,362 " style="fill: none; stroke-opacity: 0; stroke: white; stroke-width: 15px;" class="djs-hit"/>
                  <rect x="1304.4534412955466" y="284.9392712550607" width="78.54655870445345" height="83.0607287449393" style="fill: none;" class="djs-outline"/>
                </g>
              </g>
              <g class="djs-group">
                <g class="djs-element djs-shape" data-element-id="c04333f3-a4d1-4cf2-aa0e-9b6b8893edec" transform="translate(1289.45, 251.939)" style="display: block;">
                  <g class="djs-visual">
                    <path d="M11,18h2v-2h-2V18zM12,2C6.48,2,2,6.48,2,12s4.48,10,10,10s10,-4.48,10,-10S17.52,2,12,2zM12,20c-4.41,0,-8,-3.59,-8,-8s3.59,-8,8,-8s8,3.59,8,8S16.41,20,12,20zM12,6c-2.21,0,-4,1.79,-4,4h2c0,-1.1,0.9,-2,2,-2s2,0.9,2,2c0,2,-3,1.75,-3,5h2c0,-2.25,3,-2.5,3,-5C16,7.79,14.21,6,12,6z" style="fill: black; stroke-width: 2px; stroke: none; fill-opacity: 0.95;" transform="scale(1.66667)"/>
                  </g>
                  <rect x="0" y="0" width="40" height="40" style="fill: none; stroke-opacity: 0; stroke: white; stroke-width: 15px;" class="djs-hit"/>
                  <rect x="-6" y="-6" width="52" height="52" style="fill: none;" class="djs-outline"/>
                </g>
              </g>
              <g class="djs-group">
                <g class="djs-element djs-shape" data-element-id="789be839-284e-4018-8136-75bfb5699790" transform="translate(1206.45, 263.939)" style="display: block;">
                  <g class="djs-visual">
                    <path d="M19,3H5C3.9,3,3,3.9,3,5v14c0,1.1,0.9,2,2,2h14c1.1,0,2,-0.9,2,-2V5C21,3.9,20.1,3,19,3z" style="fill: white; stroke-width: 2px; stroke: black;" transform="scale(0.833333)"/>
                  </g>
                  <rect x="0" y="0" width="20" height="20" style="fill: none; stroke-opacity: 0; stroke: white; stroke-width: 15px;" class="djs-hit"/>
                  <rect x="-6" y="-6" width="32" height="32" style="fill: none;" class="djs-outline"/>
                </g>
              </g>
              <g class="djs-group">
                <g class="djs-element djs-shape" data-element-id="47b75014-f3d5-4df3-b8b3-ec9757ff7d26" transform="translate(1490.45, 165.939)" style="display: block;">
                  <g class="djs-visual">
                    <path d="M19,3H5C3.9,3,3,3.9,3,5v14c0,1.1,0.9,2,2,2h14c1.1,0,2,-0.9,2,-2V5C21,3.9,20.1,3,19,3zM19,19H5V5h14V19zM17.99,9L16.58,7.58L9.99,14.17L7.41,11.6L5.99,13.01L9.99,17z" style="fill: black; stroke-width: 2px; stroke: none;" transform="scale(0.833333)"/>
                  </g>
                  <rect x="0" y="0" width="20" height="20" style="fill: none; stroke-opacity: 0; stroke: white; stroke-width: 15px;" class="djs-hit"/>
                  <rect x="-6" y="-6" width="32" height="32" style="fill: none;" class="djs-outline"/>
                </g>
              </g>
              <g class="djs-group">
                <g class="djs-element djs-shape" data-element-id="23e8a285-9702-4df7-b841-4a9ce94f5b91" transform="translate(1379.45, 305.939)" style="display: block;">
                  <g class="djs-visual">
                    <rect x="0" y="0" width="140" height="100" rx="10" ry="10" style="stroke: black; stroke-width: 2px; fill: white;"/>
                    <text style="fill: black;" class="djs-label">
                      <tspan x="18" y="54.75">Reclamaci&#xF3;n</tspan>
                    </text>
                    <path d="M9 11.5c-.69 0-1.25.56-1.25 1.25s.56 1.25 1.25 1.25 1.25-.56 1.25-1.25-.56-1.25-1.25-1.25zm6 0c-.69 0-1.25.56-1.25 1.25s.56 1.25 1.25 1.25 1.25-.56 1.25-1.25-.56-1.25-1.25-1.25zM12 2C6.48 2 2 6.48 2 12s4.48 10 10 10 10-4.48 10-10S17.52 2 12 2zm0 18c-4.41 0-8-3.59-8-8 0-.29.02-.58.05-.86 2.36-1.05 4.23-2.98 5.21-5.37C11.07 8.33 14.05 10 17.42 10c.78 0 1.53-.09 2.25-.26.21.71.33 1.47.33 2.26 0 4.41-3.59 8-8 8z" style="fill: black; stroke-width: 2px; stroke: none;" transform="translate(2, 2)"/>
                    <path d="M4 10v7h3v-7H4zm6 0v7h3v-7h-3zM2 22h19v-3H2v3zm14-12v7h3v-7h-3zm-4.5-9L2 6v2h19V6l-9.5-5z" style="fill: black; stroke-width: 2px; stroke: none;" transform="translate(114, 2)"/>
                    <path d="M12.72,2.03C6.63,1.6,1.6,6.63,2.03,12.72C2.39,18.01,7.01,22,12.31,22L16,22c0.55,0,1-0.45,1-1v0c0-0.55-0.45-1-1-1l-3.67,0c-3.73,0-7.15-2.42-8.08-6.03c-1.49-5.8,3.91-11.21,9.71-9.71C17.58,5.18,20,8.6,20,12.33l0,1.1c0,0.79-0.71,1.57-1.5,1.57S17,14.22,17,13.43v-1.25c0-2.51-1.78-4.77-4.26-5.12c-3.4-0.49-6.27,2.45-5.66,5.87c0.34,1.91,1.83,3.49,3.72,3.94c1.84,0.43,3.59-0.16,4.74-1.33c0.89,1.22,2.67,1.86,4.3,1.21c1.34-0.53,2.16-1.9,2.16-3.34c0-0.33,0-0.7,0-1.09C22,7.01,18.01,2.39,12.72,2.03z M12,15c-1.66,0-3-1.34-3-3s1.34-3,3-3s3,1.34,3,3S13.66,15,12,15z" style="fill: black; stroke-width: 2px; stroke: none;" transform="translate(58, 74)"/>
                  </g>
                  <rect x="0" y="0" width="140" height="100" style="fill: none; stroke-opacity: 0; stroke: white; stroke-width: 15px;" class="djs-hit"/>
                  <rect x="-6" y="-6" width="152" height="112" style="fill: none;" class="djs-outline"/>
                </g>
              </g>
            </g>
          </g>
          <g class="djs-group">
            <g class="djs-element djs-shape" data-element-id="40aa36fd-dba9-432d-856c-92a38244ef2f" transform="translate(122, 21)" style="display: block;">
              <g class="djs-visual">
                <path d="M0,0h316l40,60l-40,60h-316zM0,120h316v289h-316z" style="fill: white; stroke-width: 2px; stroke: black; fill-opacity: 0.35;"/>
                <text style="fill: black;" class="djs-label">
                  <tspan x="48.5" y="64.75">Presentaci&#xF3;n de solicitudes</tspan>
                </text>
              </g>
              <rect x="0" y="0" width="316" height="409" style="fill: none; stroke-opacity: 0; stroke: white; stroke-width: 15px;" class="djs-hit"/>
              <rect x="-6" y="-6" width="328" height="421" style="fill: none;" class="djs-outline"/>
            </g>
            <g class="djs-children">
              <g class="djs-group">
                <g class="djs-element djs-connection" data-element-id="b004e46d-25ac-4ebc-a2a7-a109421b3e35" style="display: block;">
                  <g class="djs-visual">
                    <path d="m  347,280L397,280 " style="fill: none; stroke-width: 2px; stroke: black; stroke-linejoin: round; marker-end: url(&quot;#sequenceflow-end-black-black-66ac109e-9358-4624-9c17-a574b6e4f983&quot;);"/>
                  </g>
                  <polyline points="347,280 397,280 " style="fill: none; stroke-opacity: 0; stroke: white; stroke-width: 15px;" class="djs-hit"/>
                  <rect x="341" y="274" width="62" height="12" style="fill: none;" class="djs-outline"/>
                </g>
              </g>
              <g class="djs-group">
                <g class="djs-element djs-connection" data-element-id="da6a8b5e-bf77-4788-9f04-8567fa7f179f" style="display: block;">
                  <g class="djs-visual">
                    <path d="m  167,283L207,282 " style="fill: none; stroke-width: 2px; stroke: black; stroke-linejoin: round; marker-end: url(&quot;#sequenceflow-end-black-black-66ac109e-9358-4624-9c17-a574b6e4f983&quot;);"/>
                  </g>
                  <polyline points="167,283 207,282 " style="fill: none; stroke-opacity: 0; stroke: white; stroke-width: 15px;" class="djs-hit"/>
                  <rect x="161" y="276" width="52" height="13" style="fill: none;" class="djs-outline"/>
                </g>
              </g>
              <g class="djs-group">
                <g class="djs-element djs-shape" data-element-id="3835aaa4-ec4e-4774-9e6f-76fabed8ce0e" transform="translate(147, 275)" style="display: block;">
                  <g class="djs-visual">
                    <path d="M19,3H5C3.9,3,3,3.9,3,5v14c0,1.1,0.9,2,2,2h14c1.1,0,2,-0.9,2,-2V5C21,3.9,20.1,3,19,3z" style="fill: white; stroke-width: 2px; stroke: black;" transform="scale(0.833333)"/>
                  </g>
                  <rect x="0" y="0" width="20" height="20" style="fill: none; stroke-opacity: 0; stroke: white; stroke-width: 15px;" class="djs-hit"/>
                  <rect x="-6" y="-6" width="32" height="32" style="fill: none;" class="djs-outline"/>
                </g>
              </g>
              <g class="djs-group">
                <g class="djs-element djs-shape" data-element-id="9afaceba-3a10-48a3-9a57-f22e7a74ff03" transform="translate(397, 272)" style="display: block;">
                  <g class="djs-visual">
                    <path d="M19,3H5C3.9,3,3,3.9,3,5v14c0,1.1,0.9,2,2,2h14c1.1,0,2,-0.9,2,-2V5C21,3.9,20.1,3,19,3zM19,19H5V5h14V19zM17.99,9L16.58,7.58L9.99,14.17L7.41,11.6L5.99,13.01L9.99,17z" style="fill: black; stroke-width: 2px; stroke: none;" transform="scale(0.833333)"/>
                  </g>
                  <rect x="0" y="0" width="20" height="20" style="fill: none; stroke-opacity: 0; stroke: white; stroke-width: 15px;" class="djs-hit"/>
                  <rect x="-6" y="-6" width="32" height="32" style="fill: none;" class="djs-outline"/>
                </g>
              </g>
              <g class="djs-group">
                <g class="djs-element djs-shape" data-element-id="53aac759-ff7b-467b-b4bc-516e351dd61c" transform="translate(207, 239)" style="display: block;">
                  <g class="djs-visual">
                    <rect x="0" y="0" width="140" height="100" rx="10" ry="10" style="stroke: black; stroke-width: 2px; fill: white;"/>
                    <text style="fill: black;" class="djs-label">
                      <tspan x="24.5" y="45.25">Formulario </tspan>
                      <tspan x="25" y="64.25">electr&#xF3;nico</tspan>
                    </text>
                    <path d="M9 11.5c-.69 0-1.25.56-1.25 1.25s.56 1.25 1.25 1.25 1.25-.56 1.25-1.25-.56-1.25-1.25-1.25zm6 0c-.69 0-1.25.56-1.25 1.25s.56 1.25 1.25 1.25 1.25-.56 1.25-1.25-.56-1.25-1.25-1.25zM12 2C6.48 2 2 6.48 2 12s4.48 10 10 10 10-4.48 10-10S17.52 2 12 2zm0 18c-4.41 0-8-3.59-8-8 0-.29.02-.58.05-.86 2.36-1.05 4.23-2.98 5.21-5.37C11.07 8.33 14.05 10 17.42 10c.78 0 1.53-.09 2.25-.26.21.71.33 1.47.33 2.26 0 4.41-3.59 8-8 8z" style="fill: black; stroke-width: 2px; stroke: none;" transform="translate(2, 2)"/>
                    <path d="M15,11V5.83c0-0.53-0.21-1.04-0.59-1.41l-1.71-1.71c-0.39-0.39-1.02-0.39-1.41,0L9.59,4.41C9.21,4.79,9,5.3,9,5.83V7H5C3.9,7,3,7.9,3,9v10c0,1.1,0.9,2,2,2h14c1.1,0,2-0.9,2-2v-6c0-1.1-0.9-2-2-2H15z M7,19H5v-2h2V19z M7,15H5v-2h2V15z M7,11H5V9h2V11z M13,19h-2v-2h2V19z M13,15h-2v-2h2V15z M13,11h-2V9h2V11z M13,7h-2V5h2V7z M19,19h-2v-2h2V19z M19,15h-2v-2h2V15z" style="fill: black; stroke-width: 2px; stroke: none;" transform="translate(114, 2)"/>
                    <path d="M21,3H3C1.9,3,1,3.9,1,5v12c0,1.1,0.9,2,2,2h5v1c0,0.55,0.45,1,1,1h6c0.55,0,1-0.45,1-1v-1h5c1.1,0,2-0.9,2-2V5C23,3.9,22.1,3,21,3z M20,17H4c-0.55,0-1-0.45-1-1V6c0-0.55,0.45-1,1-1h16c0.55,0,1,0.45,1,1v10C21,16.55,20.55,17,20,17z M18,8H9C8.45,8,8,8.45,8,9v0c0,0.55,0.45,1,1,1h9c0.55,0,1-0.45,1-1v0C19,8.45,18.55,8,18,8z M18,12H9c-0.55,0-1,0.45-1,1v0c0,0.55,0.45,1,1,1h9c0.55,0,1-0.45,1-1v0C19,12.45,18.55,12,18,12z M7,8H5v2h2V8z M7,12H5v2h2V12z" style="fill: black; stroke-width: 2px; stroke: none;" transform="translate(58, 74)"/>
                  </g>
                  <rect x="0" y="0" width="140" height="100" style="fill: none; stroke-opacity: 0; stroke: white; stroke-width: 15px;" class="djs-hit"/>
                  <rect x="-6" y="-6" width="152" height="112" style="fill: none;" class="djs-outline"/>
                </g>
              </g>
            </g>
          </g>
        </g>
      </g>
    </g>
  </g>
  <defs>
    <marker id="sequenceflow-end-black-black-66ac109e-9358-4624-9c17-a574b6e4f983" viewBox="0 0 20 20" refX="11" refY="10" markerWidth="10" markerHeight="10" orient="auto">
      <path d="M 1 5 L 11 10 L 1 15 Z" style="fill: black; stroke-width: 1px; stroke-linecap: round; stroke-dasharray: 10000, 1; stroke: black;"/>
    </marker>
  </defs>
</svg>

