<svg xmlns="http://www.w3.org/2000/svg" version="1.1" viewBox="121 -20 1497 451" width="1497" height="451">
    <defs>
        <style type="text/css">
            <![CDATA[@import url('https://fonts.googleapis.com/css?family=Roboto|Roboto+Slab:100,300,400,700');
text {
    font: 400 14px/20px 'Roboto Slab', serif;
}]]>
        </style>
        <marker id="sequenceflow-end-black-black-cfbefe9a-8535-4d07-bf1d-d82866b0d65d" viewBox="0 0 20 20" refX="11"
                refY="10" markerWidth="10" markerHeight="10" orient="auto">
            <path d="M 1 5 L 11 10 L 1 15 Z"
                  style="fill: black; stroke-width: 1px; stroke-linecap: round; stroke-dasharray: 10000, 1; stroke: black;"></path>
        </marker>
    </defs>
    <g>
        <g>
            <g>
                <g style="display: block;" transform="translate(122 -19)">
                    <g>
                        <rect x="0" y="0" width="1495" height="449" rx="0" ry="0"
                              style="stroke: black; stroke-width: 2px; fill: rgb(238, 238, 238);"></rect>
                        <text style="font-weight: bold;">
                            <tspan x="602.171875" y="24.625">Reconocimiento del grado de discapacidad</tspan>
                        </text>
                    </g>
                </g>
                <g>
                    <g>
                        <g style="display: block;" transform="translate(1170 21)">
                            <g>
                                <path d="M0,0h447v120h-447l40,-60zM0,120h447v289h-447z"
                                      style="fill: white; stroke-width: 2px; stroke: black; fill-opacity: 0.5;"></path>
                                <text style="font-size: 200%;">
                                    <tspan x="75.96875" y="50.75">Resolución, notificación y</tspan>
                                    <tspan x="167.0859375" y="87.75">terminación</tspan>
                                </text>
                            </g>
                        </g>
                        <g>
                            <g>
                                <g style="display: block;">
                                    <g>
                                        <path d="m  1226.4534412955466,274L1289.4534412955466,273.9392712550607 "
                                              style="fill: none; stroke-width: 2px; stroke: black; stroke-linejoin: round; marker-end: url(&quot;#sequenceflow-end-black-black-cfbefe9a-8535-4d07-bf1d-d82866b0d65d&quot;);"></path>
                                    </g>
                                    <polyline points="1226.4534412955466,274 1289.4534412955466,273.9392712550607 "
                                              style="fill: none; stroke-opacity: 0; stroke: white; stroke-width: 15px;"></polyline>
                                    <rect x="1220.4534412955466" y="267.9392712550607" width="75"
                                          height="12.060728744939297" style="fill: none;"></rect>
                                </g>
                            </g>
                            <g>
                                <g style="display: block;">
                                    <g>
                                        <path
                                            d="m  1310.4534412955466,290.9392712550607L1310.4534412955466,362 L1377,362 "
                                            style="fill: none; stroke-width: 2px; stroke: black; stroke-linejoin: round; marker-end: url(&quot;#sequenceflow-end-black-black-cfbefe9a-8535-4d07-bf1d-d82866b0d65d&quot;);"></path>
                                    </g>
                                    <polyline
                                        points="1310.4534412955466,290.9392712550607 1310.4534412955466,362 1377,362 "
                                        style="fill: none; stroke-opacity: 0; stroke: white; stroke-width: 15px;"></polyline>
                                    <rect x="1304.4534412955466" y="284.9392712550607" width="78.54655870445345"
                                          height="83.0607287449393" style="fill: none;"></rect>
                                </g>
                            </g>
                            <g>
                                <g style="display: block;">
                                    <g>
                                        <path
                                            d="m  1309.4534412955466,265.9392712550607L1309.4534412955466,175.93927125506073 L1493.4534412955466,175.93927125506073 "
                                            style="fill: none; stroke-width: 2px; stroke: black; stroke-linejoin: round; marker-end: url(&quot;#sequenceflow-end-black-black-cfbefe9a-8535-4d07-bf1d-d82866b0d65d&quot;);"></path>
                                    </g>
                                    <polyline
                                        points="1309.4534412955466,265.9392712550607 1309.4534412955466,175.93927125506073 1493.4534412955466,175.93927125506073 "
                                        style="fill: none; stroke-opacity: 0; stroke: white; stroke-width: 15px;"></polyline>
                                    <rect x="1303.4534412955466" y="169.93927125506073" width="196"
                                          height="101.99999999999997" style="fill: none;"></rect>
                                </g>
                            </g>
                            <g>
                                <g style="display: block;"
                                   transform="translate(1379.45 305.939)">
                                    <g>
                                        <rect x="0" y="0" width="140" height="108" rx="10" ry="10"
                                              style="stroke: none; stroke-width: 2px; fill: none;"></rect>
                                        <path d="M0,10a10,10,0,0,1,10,-10H24l6,13l-6,13H0z"
                                              style="fill: white; stroke-width: 1px; stroke: black; fill-opacity: 0.95;"></path>
                                        <path d="M140,26v-16a10,10,0,0,0,-10,-10H26l6,13l-6,13z"
                                              style="fill: rgb(238, 238, 238); stroke-width: 1px; stroke: black; fill-opacity: 0.95;"></path>
                                        <text style="fill: black; font-size: 75%; font-weight: bold;"
                                              transform="translate(25 0)">
                                            <tspan x="58" y="16.5">Xunta</tspan>
                                        </text>
                                        <path d="M0,82v16a10,10,0,0,0,10,10H130a10,10,0,0,0,10,-10v-16z"
                                              style="fill: white; stroke-width: 1px; stroke: black; fill-opacity: 0.95;"></path>
                                        <rect x="0" y="0" width="140" height="56" rx="0" ry="0"
                                              style="stroke: black; stroke-width: 1px; fill: white; fill-opacity: 0.95;"
                                              transform="translate(0 26)"></rect>
                                        <text style="fill: black;">
                                            <tspan x="28.2421875" y="58.625">Reclamación</tspan>
                                        </text>
                                        <path
                                            d="M9 11.5c-.69 0-1.25.56-1.25 1.25s.56 1.25 1.25 1.25 1.25-.56 1.25-1.25-.56-1.25-1.25-1.25zm6 0c-.69 0-1.25.56-1.25 1.25s.56 1.25 1.25 1.25 1.25-.56 1.25-1.25-.56-1.25-1.25-1.25zM12 2C6.48 2 2 6.48 2 12s4.48 10 10 10 10-4.48 10-10S17.52 2 12 2zm0 18c-4.41 0-8-3.59-8-8 0-.29.02-.58.05-.86 2.36-1.05 4.23-2.98 5.21-5.37C11.07 8.33 14.05 10 17.42 10c.78 0 1.53-.09 2.25-.26.21.71.33 1.47.33 2.26 0 4.41-3.59 8-8 8z"
                                            style="fill: black; stroke-width: 2px; stroke: none;"
                                            transform="translate(1 1)"></path>
                                        <path
                                            d="M4 10v7h3v-7H4zm6 0v7h3v-7h-3zM2 22h19v-3H2v3zm14-12v7h3v-7h-3zm-4.5-9L2 6v2h19V6l-9.5-5z"
                                            style="fill: black; stroke-width: 2px; stroke: none;"
                                            transform="translate(115 1)"></path>
                                        <path
                                            d="M12.72,2.03C6.63,1.6,1.6,6.63,2.03,12.72C2.39,18.01,7.01,22,12.31,22L16,22c0.55,0,1-0.45,1-1v0c0-0.55-0.45-1-1-1l-3.67,0c-3.73,0-7.15-2.42-8.08-6.03c-1.49-5.8,3.91-11.21,9.71-9.71C17.58,5.18,20,8.6,20,12.33l0,1.1c0,0.79-0.71,1.57-1.5,1.57S17,14.22,17,13.43v-1.25c0-2.51-1.78-4.77-4.26-5.12c-3.4-0.49-6.27,2.45-5.66,5.87c0.34,1.91,1.83,3.49,3.72,3.94c1.84,0.43,3.59-0.16,4.74-1.33c0.89,1.22,2.67,1.86,4.3,1.21c1.34-0.53,2.16-1.9,2.16-3.34c0-0.33,0-0.7,0-1.09C22,7.01,18.01,2.39,12.72,2.03z M12,15c-1.66,0-3-1.34-3-3s1.34-3,3-3s3,1.34,3,3S13.66,15,12,15z"
                                            style="fill: black; stroke-width: 2px; stroke: none;"
                                            transform="translate(58 83)"></path>
                                    </g>
                                </g>
                            </g>
                            <g>
                                <g style="display: block;"
                                   transform="translate(1206.45 263.939)">
                                    <g>
                                        <rect x="0" y="0" width="20" height="20" rx="2" ry="2"
                                              style="stroke: black; stroke-width: 2.5px; fill: white; fill-opacity: 0.95;"></rect>
                                    </g>
                                </g>
                            </g>
                            <g>
                                <g style="display: block;"
                                   transform="translate(1289.45 251.939)">
                                    <g>
                                        <circle cx="20" cy="20" r="20"
                                                style="stroke: none; stroke-width: 2px; fill: white; fill-opacity: 0.95;"></circle>
                                        <text style="font-size: 85%;">
                                            <tspan x="44" y="16.125">Aprobación o</tspan>
                                            <tspan x="44" y="31.625">rechazo</tspan>
                                        </text>
                                        <path
                                            d="M10.8 19.2L13.2 19.2L13.2 16.8L10.8 16.8ZM12 0C5.376 0 0 5.376 0 12C0 18.624 5.376 24 12 24C18.624 24 24 18.624 24 12C24 5.376 18.624 0 12 0ZM12 21.6C6.708 21.6 2.4 17.292 2.4 12C2.4 6.708 6.708 2.4 12 2.4C17.292 2.4 21.6 6.708 21.6 12C21.6 17.292 17.292 21.6 12 21.6ZM12 4.8C9.348 4.8 7.2 6.948 7.2 9.6L9.6 9.6C9.6 8.28 10.68 7.2 12 7.2C13.32 7.2 14.4 8.28 14.4 9.6C14.4 12 10.8 11.7 10.8 15.6L13.2 15.6C13.2 12.9 16.8 12.6 16.8 9.6C16.8 6.948 14.652 4.8 12 4.8Z"
                                            style="fill: black; stroke-width: 2px; stroke: none;"
                                            transform="scale(1.66667 1.66667)"></path>
                                    </g>
                                </g>
                            </g>
                            <g>
                                <g style="display: block;"
                                   transform="translate(1490.45 165.939)">
                                    <g>
                                        <rect x="0" y="0" width="20" height="20" rx="2" ry="2"
                                              style="stroke: black; stroke-width: 3px; fill: white; fill-opacity: 0.95;"></rect>
                                        <path d="M20 6 l-11 11 l-5-5"
                                              style="fill: none; stroke-width: 2px; stroke: black;"
                                              transform="scale(0.833333 0.833333)"></path>
                                    </g>
                                </g>
                            </g>
                        </g>
                    </g>
                    <g>
                        <g style="display: block;" transform="translate(122 21)">
                            <g>
                                <path d="M0,0h316l40,60l-40,60h-316zM0,120h316v289h-316z"
                                      style="fill: white; stroke-width: 2px; stroke: black; fill-opacity: 0.5;"></path>
                                <text style="font-size: 200%;">
                                    <tspan x="57.1484375" y="50.75">Presentación de</tspan>
                                    <tspan x="89.5625" y="87.75">solicitudes</tspan>
                                </text>
                            </g>
                        </g>
                        <g>
                            <g>
                                <g style="display: block;">
                                    <g>
                                        <path d="m  167,283L207,282 "
                                              style="fill: none; stroke-width: 2px; stroke: black; stroke-linejoin: round; marker-end: url(&quot;#sequenceflow-end-black-black-cfbefe9a-8535-4d07-bf1d-d82866b0d65d&quot;);"></path>
                                    </g>
                                </g>
                            </g>
                            <g>
                                <g style="display: block;">
                                    <g>
                                        <path d="m  347,280L397,280 "
                                              style="fill: none; stroke-width: 2px; stroke: black; stroke-linejoin: round; marker-end: url(&quot;#sequenceflow-end-black-black-cfbefe9a-8535-4d07-bf1d-d82866b0d65d&quot;);"></path>
                                    </g>
                                </g>
                            </g>
                            <g>
                                <g style="display: block;"
                                   transform="translate(397 272)">
                                    <g>
                                        <rect x="0" y="0" width="20" height="20" rx="2" ry="2"
                                              style="stroke: black; stroke-width: 3px; fill: white; fill-opacity: 0.95;"></rect>
                                        <path d="M20 6 l-11 11 l-5-5"
                                              style="fill: none; stroke-width: 2px; stroke: black;"
                                              transform="scale(0.833333 0.833333)"></path>
                                    </g>
                                </g>
                            </g>
                            <g>
                                <g style="display: block;"
                                   transform="translate(147 275)">
                                    <g>
                                        <rect x="0" y="0" width="20" height="20" rx="2" ry="2"
                                              style="stroke: black; stroke-width: 2.5px; fill: white; fill-opacity: 0.95;"></rect>
                                    </g>
                                </g>
                            </g>
                            <g>
                                <g style="display: block;"
                                   transform="translate(207 239)">
                                    <g>
                                        <rect x="0" y="0" width="140" height="108" rx="10" ry="10"
                                              style="stroke: none; stroke-width: 2px; fill: none;"></rect>
                                        <path d="M0,10a10,10,0,0,1,10,-10H24l6,13l-6,13H0z"
                                              style="fill: white; stroke-width: 1px; stroke: black; fill-opacity: 0.95;"></path>
                                        <path d="M140,26v-16a10,10,0,0,0,-10,-10H26l6,13l-6,13z"
                                              style="fill: rgb(238, 238, 238); stroke-width: 1px; stroke: black; fill-opacity: 0.95;"></path>
                                        <text style="fill: black; font-size: 75%; font-weight: bold;"
                                              transform="translate(25 0)">
                                            <tspan x="58" y="16.5">Xunta</tspan>
                                        </text>
                                        <path d="M0,82v16a10,10,0,0,0,10,10H130a10,10,0,0,0,10,-10v-16z"
                                              style="fill: white; stroke-width: 1px; stroke: black; fill-opacity: 0.95;"></path>
                                        <rect x="0" y="0" width="140" height="56" rx="0" ry="0"
                                              style="stroke: black; stroke-width: 1px; fill: white; fill-opacity: 0.95;"
                                              transform="translate(0 26)"></rect>
                                        <text style="fill: black;">
                                            <tspan x="34.0078125" y="49.375">Formulario</tspan>
                                            <tspan x="34.46875" y="67.875">electrónico</tspan>
                                        </text>
                                        <path
                                            d="M9 11.5c-.69 0-1.25.56-1.25 1.25s.56 1.25 1.25 1.25 1.25-.56 1.25-1.25-.56-1.25-1.25-1.25zm6 0c-.69 0-1.25.56-1.25 1.25s.56 1.25 1.25 1.25 1.25-.56 1.25-1.25-.56-1.25-1.25-1.25zM12 2C6.48 2 2 6.48 2 12s4.48 10 10 10 10-4.48 10-10S17.52 2 12 2zm0 18c-4.41 0-8-3.59-8-8 0-.29.02-.58.05-.86 2.36-1.05 4.23-2.98 5.21-5.37C11.07 8.33 14.05 10 17.42 10c.78 0 1.53-.09 2.25-.26.21.71.33 1.47.33 2.26 0 4.41-3.59 8-8 8z"
                                            style="fill: black; stroke-width: 2px; stroke: none;"
                                            transform="translate(1 1)"></path>
                                        <path
                                            d="M4 10v7h3v-7H4zm6 0v7h3v-7h-3zM2 22h19v-3H2v3zm14-12v7h3v-7h-3zm-4.5-9L2 6v2h19V6l-9.5-5z"
                                            style="fill: black; stroke-width: 2px; stroke: none;"
                                            transform="translate(115 1)"></path>
                                        <path
                                            d="M21,3H3C1.9,3,1,3.9,1,5v12c0,1.1,0.9,2,2,2h5v1c0,0.55,0.45,1,1,1h6c0.55,0,1-0.45,1-1v-1h5c1.1,0,2-0.9,2-2V5C23,3.9,22.1,3,21,3z M20,17H4c-0.55,0-1-0.45-1-1V6c0-0.55,0.45-1,1-1h16c0.55,0,1,0.45,1,1v10C21,16.55,20.55,17,20,17z M18,8H9C8.45,8,8,8.45,8,9v0c0,0.55,0.45,1,1,1h9c0.55,0,1-0.45,1-1v0C19,8.45,18.55,8,18,8z M18,12H9c-0.55,0-1,0.45-1,1v0c0,0.55,0.45,1,1,1h9c0.55,0,1-0.45,1-1v0C19,12.45,18.55,12,18,12z M7,8H5v2h2V8z M7,12H5v2h2V12z"
                                            style="fill: black; stroke-width: 2px; stroke: none;"
                                            transform="translate(58 83)"></path>
                                    </g>
                                </g>
                            </g>
                        </g>
                    </g>
                    <g>
                        <g style="display: block;" transform="translate(438 21)">
                            <g>
                                <path d="M0,0h732l40,60l-40,60h-732l40,-60zM0,120h732v289h-732z"
                                      style="fill: white; stroke-width: 2px; stroke: black; fill-opacity: 0.5;"></path>
                                <text style="font-size: 200%;">
                                    <tspan x="149.6328125" y="69.25">Citación, reconocimiento y dictamen</tspan>
                                </text>
                            </g>
                        </g>
                        <g>
                            <g>
                                <g style="display: block;">
                                    <g>
                                        <path d="m  865.4534412955466,280.9392712550607L925.4534412955466,282 "
                                              style="fill: none; stroke-width: 2px; stroke: black; stroke-linejoin: round; marker-end: url(&quot;#sequenceflow-end-black-black-cfbefe9a-8535-4d07-bf1d-d82866b0d65d&quot;);"></path>
                                    </g>
                                    <polyline points="865.4534412955466,280.9392712550607 925.4534412955466,282 "
                                              style="fill: none; stroke-opacity: 0; stroke: white; stroke-width: 15px;"></polyline>
                                    <rect x="859.4534412955466" y="274.9392712550607" width="72"
                                          height="13.060728744939297" style="fill: none;"></rect>
                                </g>
                            </g>
                            <g>
                                <g style="display: block;">
                                    <g>
                                        <path d="m  1065.4534412955466,279L1130.4534412955466,278 "
                                              style="fill: none; stroke-width: 2px; stroke: black; stroke-linejoin: round; marker-end: url(&quot;#sequenceflow-end-black-black-cfbefe9a-8535-4d07-bf1d-d82866b0d65d&quot;);"></path>
                                    </g>
                                </g>
                            </g>
                            <g>
                                <g style="display: block;">
                                    <g>
                                        <path d="m  664,283L725,282 "
                                              style="fill: none; stroke-width: 2px; stroke: black; stroke-linejoin: round; marker-end: url(&quot;#sequenceflow-end-black-black-cfbefe9a-8535-4d07-bf1d-d82866b0d65d&quot;);"></path>
                                    </g>
                                </g>
                            </g>
                            <g>
                                <g style="display: block;">
                                    <g>
                                        <path d="m  478.45344129554655,286L524.4534412955466,287 "
                                              style="fill: none; stroke-width: 2px; stroke: black; stroke-linejoin: round; marker-end: url(&quot;#sequenceflow-end-black-black-cfbefe9a-8535-4d07-bf1d-d82866b0d65d&quot;);"></path>
                                    </g>
                                </g>
                            </g>
                            <g>
                                <g style="display: block;"
                                   transform="translate(1130.45 265.939)">
                                    <g>
                                        <rect x="0" y="0" width="20" height="20" rx="2" ry="2"
                                              style="stroke: black; stroke-width: 3px; fill: white; fill-opacity: 0.95;"></rect>
                                        <path d="M20 6 l-11 11 l-5-5"
                                              style="fill: none; stroke-width: 2px; stroke: black;"
                                              transform="scale(0.833333 0.833333)"></path>
                                    </g>
                                </g>
                            </g>
                            <g>
                                <g style="display: block;"
                                   transform="translate(524.453 231.939)">
                                    <g>
                                        <rect x="0" y="0" width="140" height="108" rx="10" ry="10"
                                              style="stroke: none; stroke-width: 2px; fill: none;"></rect>
                                        <path d="M0,10a10,10,0,0,1,10,-10H107l6,13l-6,13H0z"
                                              style="fill: white; stroke-width: 1px; stroke: black; fill-opacity: 0.95;"></path>
                                        <path d="M140,26v-16a10,10,0,0,0,-10,-10H109l6,13l-6,13z"
                                              style="fill: rgb(238, 238, 238); stroke-width: 1px; stroke: black; fill-opacity: 0.95;"></path>
                                        <text style="fill: black; font-size: 75%; font-weight: bold;"
                                              transform="translate(25 0)">
                                            <tspan x="0" y="16.5">Xunta</tspan>
                                        </text>
                                        <path d="M0,82v16a10,10,0,0,0,10,10H130a10,10,0,0,0,10,-10v-16z"
                                              style="fill: white; stroke-width: 1px; stroke: black; fill-opacity: 0.95;"></path>
                                        <rect x="0" y="0" width="140" height="56" rx="0" ry="0"
                                              style="stroke: black; stroke-width: 1px; fill: white; fill-opacity: 0.95;"
                                              transform="translate(0 26)"></rect>
                                        <text style="fill: black;">
                                            <tspan x="40.8984375" y="40.125">Citación,</tspan>
                                            <tspan x="14.2421875" y="58.625">reconocimiento y</tspan>
                                            <tspan x="40.6796875" y="77.125">dictamen</tspan>
                                        </text>
                                        <path
                                            d="M4 10v7h3v-7H4zm6 0v7h3v-7h-3zM2 22h19v-3H2v3zm14-12v7h3v-7h-3zm-4.5-9L2 6v2h19V6l-9.5-5z"
                                            style="fill: black; stroke-width: 2px; stroke: none;"
                                            transform="translate(1 1)"></path>
                                        <path
                                            d="M9 11.5c-.69 0-1.25.56-1.25 1.25s.56 1.25 1.25 1.25 1.25-.56 1.25-1.25-.56-1.25-1.25-1.25zm6 0c-.69 0-1.25.56-1.25 1.25s.56 1.25 1.25 1.25 1.25-.56 1.25-1.25-.56-1.25-1.25-1.25zM12 2C6.48 2 2 6.48 2 12s4.48 10 10 10 10-4.48 10-10S17.52 2 12 2zm0 18c-4.41 0-8-3.59-8-8 0-.29.02-.58.05-.86 2.36-1.05 4.23-2.98 5.21-5.37C11.07 8.33 14.05 10 17.42 10c.78 0 1.53-.09 2.25-.26.21.71.33 1.47.33 2.26 0 4.41-3.59 8-8 8z"
                                            style="fill: black; stroke-width: 2px; stroke: none;"
                                            transform="translate(115 1)"></path>
                                        <path
                                            d="M12.72,2.03C6.63,1.6,1.6,6.63,2.03,12.72C2.39,18.01,7.01,22,12.31,22L16,22c0.55,0,1-0.45,1-1v0c0-0.55-0.45-1-1-1l-3.67,0c-3.73,0-7.15-2.42-8.08-6.03c-1.49-5.8,3.91-11.21,9.71-9.71C17.58,5.18,20,8.6,20,12.33l0,1.1c0,0.79-0.71,1.57-1.5,1.57S17,14.22,17,13.43v-1.25c0-2.51-1.78-4.77-4.26-5.12c-3.4-0.49-6.27,2.45-5.66,5.87c0.34,1.91,1.83,3.49,3.72,3.94c1.84,0.43,3.59-0.16,4.74-1.33c0.89,1.22,2.67,1.86,4.3,1.21c1.34-0.53,2.16-1.9,2.16-3.34c0-0.33,0-0.7,0-1.09C22,7.01,18.01,2.39,12.72,2.03z M12,15c-1.66,0-3-1.34-3-3s1.34-3,3-3s3,1.34,3,3S13.66,15,12,15z"
                                            style="fill: black; stroke-width: 2px; stroke: none;"
                                            transform="translate(58 83)"></path>
                                    </g>
                                </g>
                            </g>
                            <g>
                                <g style="display: block;"
                                   transform="translate(725.453 232.939)">
                                    <g>
                                        <rect x="0" y="0" width="140" height="108" rx="10" ry="10"
                                              style="stroke: none; stroke-width: 2px; fill: none;"></rect>
                                        <path d="M0,10a10,10,0,0,1,10,-10H24l6,13l-6,13H0z"
                                              style="fill: white; stroke-width: 1px; stroke: black; fill-opacity: 0.95;"></path>
                                        <path d="M140,26v-16a10,10,0,0,0,-10,-10H26l6,13l-6,13z"
                                              style="fill: rgb(238, 238, 238); stroke-width: 1px; stroke: black; fill-opacity: 0.95;"></path>
                                        <text style="fill: black; font-size: 75%; font-weight: bold;"
                                              transform="translate(25 0)">
                                            <tspan x="58" y="16.5">Xunta</tspan>
                                        </text>
                                        <path d="M0,82v16a10,10,0,0,0,10,10H130a10,10,0,0,0,10,-10v-16z"
                                              style="fill: white; stroke-width: 1px; stroke: black; fill-opacity: 0.95;"></path>
                                        <rect x="0" y="0" width="140" height="56" rx="0" ry="0"
                                              style="stroke: black; stroke-width: 1px; fill: white; fill-opacity: 0.95;"
                                              transform="translate(0 26)"></rect>
                                        <text style="fill: black;">
                                            <tspan x="17.5703125" y="58.625">Reconocimiento</tspan>
                                        </text>
                                        <path
                                            d="M9 11.5c-.69 0-1.25.56-1.25 1.25s.56 1.25 1.25 1.25 1.25-.56 1.25-1.25-.56-1.25-1.25-1.25zm6 0c-.69 0-1.25.56-1.25 1.25s.56 1.25 1.25 1.25 1.25-.56 1.25-1.25-.56-1.25-1.25-1.25zM12 2C6.48 2 2 6.48 2 12s4.48 10 10 10 10-4.48 10-10S17.52 2 12 2zm0 18c-4.41 0-8-3.59-8-8 0-.29.02-.58.05-.86 2.36-1.05 4.23-2.98 5.21-5.37C11.07 8.33 14.05 10 17.42 10c.78 0 1.53-.09 2.25-.26.21.71.33 1.47.33 2.26 0 4.41-3.59 8-8 8z"
                                            style="fill: black; stroke-width: 2px; stroke: none;"
                                            transform="translate(1 1)"></path>
                                        <path
                                            d="M4 10v7h3v-7H4zm6 0v7h3v-7h-3zM2 22h19v-3H2v3zm14-12v7h3v-7h-3zm-4.5-9L2 6v2h19V6l-9.5-5z"
                                            style="fill: black; stroke-width: 2px; stroke: none;"
                                            transform="translate(115 1)"></path>
                                        <path
                                            d="M16,11c1.66,0,2.99-1.34,2.99-3c0-1.66-1.33-3-2.99-3s-3,1.34-3,3C13,9.66,14.34,11,16,11zM8,11c1.66,0,2.99-1.34,2.99-3c0-1.66-1.33-3-2.99-3S5,6.34,5,8C5,9.66,6.34,11,8,11zM8,13c-2.33,0-7,1.17-7,3.5V18c0,0.55,0.45,1,1,1h12c0.55,0,1-0.45,1-1v-1.5C15,14.17,10.33,13,8,13zM16,13c-0.29,0-0.62,0.02-0.97,0.05c0.02,0.01,0.03,0.03,0.04,0.04C16.21,13.92,17,15.03,17,16.5V18c0,0.35-0.07,0.69-0.18,1H22c0.55,0,1-0.45,1-1v-1.5C23,14.17,18.33,13,16,13z"
                                            style="fill: black; stroke-width: 2px; stroke: none;"
                                            transform="translate(58 83)"></path>
                                    </g>
                                </g>
                            </g>
                            <g>
                                <g style="display: block;"
                                   transform="translate(925.453 229.939)">
                                    <g>
                                        <rect x="0" y="0" width="140" height="108" rx="10" ry="10"
                                              style="stroke: none; stroke-width: 2px; fill: none;"></rect>
                                        <path d="M0,10a10,10,0,0,1,10,-10H107l6,13l-6,13H0z"
                                              style="fill: white; stroke-width: 1px; stroke: black; fill-opacity: 0.95;"></path>
                                        <path d="M140,26v-16a10,10,0,0,0,-10,-10H109l6,13l-6,13z"
                                              style="fill: rgb(238, 238, 238); stroke-width: 1px; stroke: black; fill-opacity: 0.95;"></path>
                                        <text style="fill: black; font-size: 75%; font-weight: bold;"
                                              transform="translate(25 0)">
                                            <tspan x="0" y="16.5">Xunta</tspan>
                                        </text>
                                        <path d="M0,82v16a10,10,0,0,0,10,10H130a10,10,0,0,0,10,-10v-16z"
                                              style="fill: white; stroke-width: 1px; stroke: black; fill-opacity: 0.95;"></path>
                                        <rect x="0" y="0" width="140" height="56" rx="0" ry="0"
                                              style="stroke: black; stroke-width: 1px; fill: white; fill-opacity: 0.95;"
                                              transform="translate(0 26)"></rect>
                                        <text style="fill: black;">
                                            <tspan x="38.90625" y="58.625">Dictamen</tspan>
                                        </text>
                                        <path
                                            d="M4 10v7h3v-7H4zm6 0v7h3v-7h-3zM2 22h19v-3H2v3zm14-12v7h3v-7h-3zm-4.5-9L2 6v2h19V6l-9.5-5z"
                                            style="fill: black; stroke-width: 2px; stroke: none;"
                                            transform="translate(1 1)"></path>
                                        <path
                                            d="M9 11.5c-.69 0-1.25.56-1.25 1.25s.56 1.25 1.25 1.25 1.25-.56 1.25-1.25-.56-1.25-1.25-1.25zm6 0c-.69 0-1.25.56-1.25 1.25s.56 1.25 1.25 1.25 1.25-.56 1.25-1.25-.56-1.25-1.25-1.25zM12 2C6.48 2 2 6.48 2 12s4.48 10 10 10 10-4.48 10-10S17.52 2 12 2zm0 18c-4.41 0-8-3.59-8-8 0-.29.02-.58.05-.86 2.36-1.05 4.23-2.98 5.21-5.37C11.07 8.33 14.05 10 17.42 10c.78 0 1.53-.09 2.25-.26.21.71.33 1.47.33 2.26 0 4.41-3.59 8-8 8z"
                                            style="fill: black; stroke-width: 2px; stroke: none;"
                                            transform="translate(115 1)"></path>
                                        <path
                                            d="M12.72,2.03C6.63,1.6,1.6,6.63,2.03,12.72C2.39,18.01,7.01,22,12.31,22L16,22c0.55,0,1-0.45,1-1v0c0-0.55-0.45-1-1-1l-3.67,0c-3.73,0-7.15-2.42-8.08-6.03c-1.49-5.8,3.91-11.21,9.71-9.71C17.58,5.18,20,8.6,20,12.33l0,1.1c0,0.79-0.71,1.57-1.5,1.57S17,14.22,17,13.43v-1.25c0-2.51-1.78-4.77-4.26-5.12c-3.4-0.49-6.27,2.45-5.66,5.87c0.34,1.91,1.83,3.49,3.72,3.94c1.84,0.43,3.59-0.16,4.74-1.33c0.89,1.22,2.67,1.86,4.3,1.21c1.34-0.53,2.16-1.9,2.16-3.34c0-0.33,0-0.7,0-1.09C22,7.01,18.01,2.39,12.72,2.03z M12,15c-1.66,0-3-1.34-3-3s1.34-3,3-3s3,1.34,3,3S13.66,15,12,15z"
                                            style="fill: black; stroke-width: 2px; stroke: none;"
                                            transform="translate(58 83)"></path>
                                    </g>
                                </g>
                            </g>
                            <g>
                                <g style="display: block;"
                                   transform="translate(458.453 273.939)">
                                    <g>
                                        <rect x="0" y="0" width="20" height="20" rx="2" ry="2"
                                              style="stroke: black; stroke-width: 2.5px; fill: white; fill-opacity: 0.95;"></rect>
                                    </g>
                                </g>
                            </g>
                        </g>
                    </g>
                </g>
            </g>
        </g>
    </g>
</svg>